<svg width="192" height="192" viewBox="0 0 192 192" fill="none" xmlns="http://www.w3.org/2000/svg">
  <rect width="192" height="192" rx="32" fill="#0ea5e9"/>
  <path d="M48 96C48 69.4903 69.4903 48 96 48C122.51 48 144 69.4903 144 96C144 122.51 122.51 144 96 144C69.4903 144 48 122.51 48 96Z" fill="white"/>
  <path d="M96 60C75.0132 60 58 77.0132 58 98C58 118.987 75.0132 136 96 136C116.987 136 134 118.987 134 98C134 77.0132 116.987 60 96 60ZM96 128C79.4584 128 66 114.542 66 98C66 81.4584 79.4584 68 96 68C112.542 68 126 81.4584 126 98C126 114.542 112.542 128 96 128Z" fill="#0ea5e9"/>
  <path d="M96 72C84.9543 72 76 80.9543 76 92C76 103.046 84.9543 112 96 112C107.046 112 116 103.046 116 92C116 80.9543 107.046 72 96 72Z" fill="#0ea5e9"/>
</svg>
